<svg id="Layer_1" data-name="Layer 1" xmlns="http://www.w3.org/2000/svg" width="500" height="500" viewBox="0 0 500 500"><defs><style>.cls-1{fill:#fff;}.cls-2{fill:#d32128;}.cls-3{fill:#393939;}.cls-4{fill:#decdc0;}.cls-5{fill:#ef5543;}</style></defs><rect class="cls-1" x="1" y="1" width="500" height="500"/><circle class="cls-2" cx="251" cy="251" r="212"/><rect class="cls-1" x="142.7917" y="137.2136" width="190.7963" height="228.9556" rx="17.2222"/><path class="cls-3" d="M287.137,297.041h28.7163a0,0,0,0,1,0,0V380.4a2.4021,2.4021,0,0,1-2.4021,2.4021H289.5391A2.4021,2.4021,0,0,1,287.137,380.4V297.041A0,0,0,0,1,287.137,297.041Z" transform="translate(328.6667 -113.6286) rotate(45)"/><polygon class="cls-4" points="254.923 386.493 282.661 379.061 262.356 358.755 254.923 386.493"/><path class="cls-5" d="M332.6107,285.09H351.327a5,5,0,0,1,5,5v23.7162a0,0,0,0,1,0,0H327.6107a0,0,0,0,1,0,0V290.09A5,5,0,0,1,332.6107,285.09Z" transform="translate(311.9018 -154.1023) rotate(45)"/><rect class="cls-3" x="254.0682" y="381.0881" width="2.9963" height="9.524" rx="0.9371" transform="translate(347.6909 -67.6999) rotate(45)"/><path class="cls-3" d="M311.8372,181.86H220.255a2.29,2.29,0,1,1,0-4.5791h91.5822a2.29,2.29,0,1,1,0,4.5791Z"/><path class="cls-3" d="M211.3237,158.5466a2.2889,2.2889,0,0,0-3.2376,0L176.181,190.4517l-15.096-15.096a2.2893,2.2893,0,0,0-3.2376,3.2376L174.0343,194.78a2.2421,2.2421,0,0,0,2.0513,1.2941c.0343,0,.0682-.0082.1024-.01.0291.0011.0578.0084.0869.0084a2.2412,2.2412,0,0,0,2.0481-1.2879l33.0007-33.0007A2.2889,2.2889,0,0,0,211.3237,158.5466Z"/><path class="cls-3" d="M211.3237,208.5353a2.2887,2.2887,0,0,0-3.2376,0L176.181,240.44l-15.096-15.0961a2.2893,2.2893,0,0,0-3.2376,3.2376l16.1869,16.1869a2.2426,2.2426,0,0,0,2.0513,1.2941c.0343,0,.0682-.0083.1024-.01.0291.0011.0578.0083.0869.0083a2.2414,2.2414,0,0,0,2.0481-1.2878l33.0007-33.0008A2.2887,2.2887,0,0,0,211.3237,208.5353Z"/><path class="cls-3" d="M211.3237,258.1423a2.2887,2.2887,0,0,0-3.2376,0L176.181,290.0474l-15.096-15.096a2.2893,2.2893,0,0,0-3.2376,3.2376l16.1869,16.1868a2.2421,2.2421,0,0,0,2.0513,1.2941c.0343,0,.0682-.0083.1024-.01.0291.0011.0578.0083.0869.0083a2.241,2.241,0,0,0,2.0481-1.2878L211.3237,261.38A2.2889,2.2889,0,0,0,211.3237,258.1423Z"/><path class="cls-3" d="M311.8372,232.4385H220.255a2.29,2.29,0,0,1,0-4.5792h91.5822a2.29,2.29,0,0,1,0,4.5792Z"/><path class="cls-3" d="M311.8372,283.017H220.255a2.29,2.29,0,1,1,0-4.5791h91.5822a2.29,2.29,0,1,1,0,4.5791Z"/></svg>